<?xml version="1.0" standalone="no"?>
<!DOCTYPE svg PUBLIC "-//W3C//DTD SVG 20010904//EN"
 "http://www.w3.org/TR/2001/REC-SVG-20010904/DTD/svg10.dtd">
<svg version="1.0" xmlns="http://www.w3.org/2000/svg"
 width="500.000000pt" height="500.000000pt" viewBox="0 0 500.000000 500.000000"
 preserveAspectRatio="xMidYMid meet">

<g transform="translate(0.000000,500.000000) scale(0.100000,-0.100000)"
fill="#000000" stroke="none">
<path d="M4263 4372 c-132 -105 -149 -120 -117 -104 11 6 26 18 34 26 17 21
25 20 36 -4 8 -18 15 -15 82 37 68 53 89 83 58 83 -8 0 -40 -21 -71 -46 -31
-25 -58 -44 -61 -42 -6 7 153 128 168 128 15 0 193 -224 193 -243 0 -9 -159
-143 -229 -193 -11 -7 -18 -15 -15 -18 6 -6 263 197 262 208 -1 12 -203 266
-211 265 -4 0 -62 -44 -129 -97z"/>
<path d="M1986 4433 c-4 -16 -21 -96 -33 -165 -4 -22 -1 -28 13 -29 18 0 17
-1 -1 -8 -16 -7 -10 -11 35 -24 96 -27 274 -67 296 -67 29 0 47 24 50 68 2 20
3 40 3 45 1 4 6 7 12 7 17 0 38 32 39 57 0 14 -12 28 -32 41 -37 22 -127 46
-136 37 -9 -9 18 -23 58 -30 51 -9 68 -21 52 -37 -6 -6 -12 -8 -12 -2 0 5 -10
9 -22 10 -13 0 -37 4 -55 8 l-31 7 -8 -58 c-4 -32 -8 -73 -8 -90 0 -18 -4 -33
-8 -33 -10 0 -9 69 1 133 8 46 7 49 -17 58 -43 16 -54 7 -81 -71 -19 -56 -31
-76 -46 -78 -13 -2 -16 0 -8 5 11 8 63 133 63 152 0 4 -26 14 -58 21 -40 8
-59 17 -59 27 0 12 8 14 34 9 94 -17 108 -18 98 -9 -10 11 -92 33 -119 33 -8
0 -17 -8 -20 -17z"/>
<path d="M2145 4411 c-3 -6 -5 -11 -3 -12 27 -8 68 -8 68 0 0 6 -6 11 -14 11
-8 0 -21 3 -29 6 -8 3 -18 1 -22 -5z"/>
<path d="M4335 4270 c-37 -41 16 -106 66 -80 45 25 26 100 -26 100 -12 0 -30
-9 -40 -20z"/>
<path d="M2760 4242 c0 -28 1 -29 63 -31 91 -2 645 -30 695 -35 40 -3 42 -2
42 24 0 28 -1 28 -72 34 -83 7 -659 36 -700 36 -24 0 -28 -4 -28 -28z"/>
<path d="M4655 4204 c8 -20 15 -38 15 -41 0 -2 4 -2 9 2 6 3 1 21 -10 40 -27
45 -33 45 -14 -1z"/>
<path d="M753 4155 c-24 -41 -43 -76 -43 -79 0 -8 125 -77 149 -82 32 -6 95
31 87 51 -3 9 0 12 8 9 13 -5 26 23 26 57 0 15 -155 119 -176 119 -5 0 -28
-34 -51 -75z"/>
<path d="M4062 4200 c-13 -6 -30 -26 -38 -45 -13 -31 -13 -39 1 -64 8 -17 19
-32 24 -36 6 -3 18 -32 28 -65 9 -33 21 -60 26 -60 4 0 5 -5 2 -10 -3 -6 6
-15 20 -20 68 -26 145 1 175 61 24 47 27 109 5 109 -8 0 -15 4 -15 10 0 5 -16
17 -35 26 -19 9 -47 30 -61 48 -45 53 -82 66 -132 46z"/>
<path d="M4620 4177 c0 -2 11 -25 25 -53 14 -27 24 -42 21 -34 -21 69 -30 90
-38 90 -4 0 -8 -1 -8 -3z"/>
<path d="M4711 4099 c-1 -9 10 -50 23 -90 13 -41 24 -81 24 -89 0 -8 7 -44 16
-79 10 -35 16 -64 14 -65 -2 -2 -19 -7 -38 -13 -31 -10 -32 -11 -9 -12 14 -1
33 5 43 12 17 12 17 20 7 88 -11 68 -30 144 -51 194 -24 61 -29 69 -29 54z"/>
<path d="M4492 4074 c-36 -28 -40 -45 -16 -68 37 -37 105 4 89 54 -12 36 -38
41 -73 14z"/>
<path d="M4670 4067 c0 -3 9 -29 20 -58 17 -42 18 -54 8 -67 -11 -13 -10 -15
5 -9 10 4 20 7 22 7 4 0 -45 122 -51 129 -2 2 -4 1 -4 -2z"/>
<path d="M3540 3978 c0 -59 -19 -411 -25 -475 l-5 -53 33 0 33 0 3 98 c1 53 4
105 7 114 3 9 -2 21 -11 26 -22 12 -23 69 -1 85 13 9 18 36 23 123 6 111 6
111 -18 117 -38 10 -39 9 -39 -35z"/>
<path d="M2505 3999 c-16 -4 -148 -32 -293 -60 -169 -34 -271 -58 -285 -69
l-21 -17 18 -139 c10 -77 23 -159 28 -184 5 -25 40 -190 76 -367 48 -228 72
-327 85 -340 23 -24 68 -21 197 11 106 26 198 44 370 72 52 9 105 22 117 30
20 12 26 11 58 -7 33 -20 118 -29 133 -14 9 9 -17 56 -28 50 -6 -3 -7 1 -4 10
4 10 2 15 -6 13 -7 -2 -15 3 -18 11 -3 9 0 11 8 6 9 -6 9 -3 0 15 -7 14 -17
19 -27 15 -9 -3 -31 -8 -50 -11 -42 -7 -47 20 -5 31 l27 7 -37 19 c-40 21 -52
45 -18 36 18 -5 20 -2 16 25 -6 37 -14 47 -26 28 -5 -8 -11 -12 -13 -10 -2 3
-14 55 -25 115 -12 61 -28 141 -35 178 -8 37 -10 70 -5 73 4 3 1 12 -7 20 -20
21 -19 44 3 45 14 0 14 2 -3 8 -17 7 -25 33 -49 157 -36 192 -45 222 -70 240
-23 16 -65 17 -111 3z m82 -51 c13 -17 37 -132 31 -149 -5 -14 -602 -140 -624
-132 -15 6 -40 151 -28 163 7 7 492 110 605 129 4 1 11 -5 16 -11z m7 -274
c13 -5 14 -10 6 -20 -14 -16 -41 -7 -33 12 6 16 6 16 27 8z m-309 -14 c3 -6
-4 -10 -18 -10 -13 0 -39 -5 -56 -11 -28 -10 -32 -15 -26 -36 3 -14 8 -39 11
-57 5 -26 4 -28 -6 -13 -7 10 -13 39 -13 65 l-2 46 45 12 c59 16 58 16 65 4z
m145 -26 c0 -36 -34 -46 -36 -11 -1 16 4 23 17 24 11 1 19 -5 19 -13z m-358
-19 c-62 -15 -65 -17 -56 -39 5 -12 10 -14 19 -6 7 6 29 13 49 15 31 4 36 2
36 -15 0 -10 -9 -24 -20 -30 -11 -6 -20 -8 -20 -4 0 3 -7 1 -15 -6 -12 -10
-18 -10 -31 1 -13 11 -14 9 -9 -17 5 -23 4 -26 -4 -12 -6 9 -14 37 -17 62 -6
44 -6 45 27 54 19 6 48 10 64 10 22 0 15 -4 -23 -13z m177 -12 c-11 -13 -11
-17 -1 -20 17 -6 15 -23 -3 -23 -9 0 -18 7 -21 15 -9 22 3 45 22 45 14 0 15
-2 3 -17z m247 -90 c4 -14 7 -42 8 -62 1 -36 1 -36 -52 -45 -43 -7 -56 -6 -63
5 -11 19 -23 98 -15 106 6 6 67 20 98 22 11 1 20 -9 24 -26z m128 1 c12 -5 13
-10 4 -24 -9 -13 -14 -15 -23 -6 -7 6 -10 17 -8 23 6 15 6 15 27 7z m-300 -21
c3 -10 8 -39 11 -64 l7 -46 -58 -11 c-66 -14 -69 -12 -79 56 -8 52 -3 58 50
71 58 13 63 13 69 -6z m-165 -60 c22 -79 18 -85 -65 -98 -47 -7 -48 -5 -59 68
-7 45 -7 46 26 56 69 19 87 15 98 -26z m367 -80 c4 -14 7 -42 8 -62 1 -35 1
-35 -52 -44 -30 -5 -56 -6 -59 -3 -11 11 -23 100 -14 109 9 9 62 24 93 26 11
1 20 -9 24 -26z m-173 -17 c3 -7 9 -34 12 -60 8 -51 2 -57 -77 -69 -36 -5 -38
-4 -43 26 -16 85 -14 91 35 104 60 15 67 15 73 -1z m312 4 c-3 -5 -13 -10 -21
-10 -8 0 -14 5 -14 10 0 6 9 10 21 10 11 0 17 -4 14 -10z m-481 -38 c3 -5 8
-31 11 -59 8 -56 7 -57 -68 -68 l-45 -7 -12 57 c-7 31 -8 61 -3 65 16 16 109
25 117 12z m567 -186 c18 -94 22 -139 15 -141 -28 -10 -92 -25 -102 -25 -14 0
-69 269 -57 280 9 9 93 29 108 26 5 -2 22 -65 36 -140z m-187 46 c5 -31 5 -56
0 -61 -5 -5 -32 -12 -60 -16 l-52 -7 -11 53 c-13 59 -9 67 41 79 63 16 72 10
82 -48z m-168 -35 c13 -65 17 -60 -59 -75 -46 -9 -49 -9 -57 13 -5 13 -10 41
-12 62 -3 37 -2 38 42 50 68 18 73 15 86 -50z m-172 -14 c13 -84 12 -86 -66
-98 l-45 -7 -11 54 c-12 60 -5 75 36 81 74 11 79 9 86 -30z m374 -105 c13 -65
6 -74 -65 -83 l-52 -7 -7 51 c-4 28 -7 54 -8 58 -1 10 62 32 95 32 24 1 27 -4
37 -51z m-171 -34 c7 -27 11 -54 9 -60 -5 -14 -107 -37 -118 -26 -5 5 -12 34
-15 65 l-6 56 39 6 c22 4 44 8 49 10 22 7 30 -3 42 -51z m497 41 c-4 -8 -16
-15 -28 -15 -20 0 -20 1 4 14 14 8 26 14 27 15 1 1 0 -6 -3 -14z m-670 -62 c4
-21 9 -46 12 -55 6 -21 -17 -34 -76 -43 l-45 -7 -11 57 c-11 61 -7 70 36 78
69 12 77 9 84 -30z m676 17 c0 -11 -6 -20 -14 -20 -8 0 -21 -3 -30 -6 -12 -5
-16 0 -16 20 0 22 4 26 30 26 23 0 30 -4 30 -20z m-30 -40 c0 -5 -5 -10 -11
-10 -5 0 -7 5 -4 10 3 6 8 10 11 10 2 0 4 -4 4 -10z m50 6 c0 -2 -9 -6 -20 -9
-11 -3 -20 -1 -20 4 0 5 9 9 20 9 11 0 20 -2 20 -4z"/>
<path d="M2748 3993 c7 -3 16 -2 19 1 4 3 -2 6 -13 5 -11 0 -14 -3 -6 -6z"/>
<path d="M3690 3948 c0 -22 5 -26 46 -32 26 -3 75 -6 110 -6 62 0 64 1 64 25
0 23 -4 25 -42 25 -24 0 -73 3 -110 7 -68 6 -68 6 -68 -19z"/>
<path d="M4253 3887 c-51 -40 -91 -76 -90 -82 5 -18 71 -45 108 -45 51 0 100
36 123 91 l19 46 -28 32 c-16 17 -31 31 -34 31 -3 -1 -47 -33 -98 -73z"/>
<path d="M2738 3923 c7 -3 16 -2 19 1 4 3 -2 6 -13 5 -11 0 -14 -3 -6 -6z"/>
<path d="M4533 3876 c-67 -28 -125 -54 -129 -58 -4 -4 49 15 117 43 167 68
166 68 149 67 -8 0 -70 -23 -137 -52z"/>
<path d="M4725 3888 c3 -16 8 -39 11 -52 7 -30 -6 -38 -101 -60 -116 -27 -156
-39 -152 -43 3 -2 63 11 136 29 146 35 143 33 115 113 -8 23 -12 29 -9 13z"/>
<path d="M2738 3863 c7 -3 16 -2 19 1 4 3 -2 6 -13 5 -11 0 -14 -3 -6 -6z"/>
<path d="M4113 3827 c-28 -23 -52 -46 -52 -50 -1 -5 23 10 52 34 73 60 72 59
62 58 -6 0 -33 -19 -62 -42z"/>
<path d="M2728 3793 c6 -2 18 -2 25 0 6 3 1 5 -13 5 -14 0 -19 -2 -12 -5z"/>
<path d="M4311 3748 c-93 -37 -102 -43 -86 -54 33 -25 81 -27 122 -8 45 23
106 106 76 103 -5 0 -55 -19 -112 -41z"/>
<path d="M4029 3753 c-13 -16 -12 -17 4 -4 9 7 17 15 17 17 0 8 -8 3 -21 -13z"/>
<path d="M2720 3728 c0 -4 7 -8 15 -8 8 0 15 4 15 8 0 5 -7 9 -15 9 -8 0 -15
-4 -15 -9z"/>
<path d="M3985 3729 c-11 -17 1 -21 15 -4 8 9 8 15 2 15 -6 0 -14 -5 -17 -11z"/>
<path d="M4648 3733 c7 -3 16 -2 19 1 4 3 -2 6 -13 5 -11 0 -14 -3 -6 -6z"/>
<path d="M4420 3720 c-11 -8 -7 -9 15 -4 37 8 45 14 19 14 -10 0 -26 -5 -34
-10z"/>
<path d="M4575 3720 c-25 -11 1 -11 35 0 20 6 21 8 5 8 -11 0 -29 -3 -40 -8z"/>
<path d="M4115 3710 c-13 -6 -15 -9 -5 -9 8 0 22 4 30 9 18 12 2 12 -25 0z"/>
<path d="M2962 3625 c2 -47 0 -85 -4 -85 -5 0 -8 -13 -8 -30 0 -27 3 -30 30
-30 24 0 30 4 31 23 0 12 3 64 5 115 l5 92 -31 0 -31 0 3 -85z m41 69 c-7 -3
-9 -12 -6 -20 4 -10 0 -12 -10 -8 -20 7 -10 34 12 33 9 0 11 -3 4 -5z m-12
-97 c-10 -9 -11 -8 -5 6 3 10 9 15 12 12 3 -3 0 -11 -7 -18z m-2 -98 c-20 -12
-36 8 -20 24 10 10 11 8 5 -7 -5 -13 -4 -17 4 -12 7 4 13 15 13 24 1 14 2 14
6 -2 3 -10 -1 -22 -8 -27z"/>
<path d="M4528 3703 c7 -3 16 -2 19 1 4 3 -2 6 -13 5 -11 0 -14 -3 -6 -6z"/>
<path d="M4488 3693 c7 -3 16 -2 19 1 4 3 -2 6 -13 5 -11 0 -14 -3 -6 -6z"/>
<path d="M4038 3679 c-10 -5 -24 -9 -30 -8 -27 3 -38 -2 -38 -16 0 -16 12 -20
24 -7 4 4 26 15 49 24 23 9 35 17 27 17 -8 0 -23 -4 -32 -10z"/>
<path d="M4448 3683 c7 -3 16 -2 19 1 4 3 -2 6 -13 5 -11 0 -14 -3 -6 -6z"/>
<path d="M4398 3673 c6 -2 18 -2 25 0 6 3 1 5 -13 5 -14 0 -19 -2 -12 -5z"/>
<path d="M2720 3660 c0 -5 4 -10 9 -10 6 0 13 5 16 10 3 6 -1 10 -9 10 -9 0
-16 -4 -16 -10z"/>
<path d="M4208 3663 c7 -3 16 -2 19 1 4 3 -2 6 -13 5 -11 0 -14 -3 -6 -6z"/>
<path d="M4168 3653 c7 -3 16 -2 19 1 4 3 -2 6 -13 5 -11 0 -14 -3 -6 -6z"/>
<path d="M4045 3634 c-33 -8 -64 -20 -70 -26 -11 -12 -7 -11 110 21 81 23 49
26 -40 5z"/>
<path d="M4255 3640 c-13 -5 -14 -9 -5 -9 8 0 24 4 35 9 13 5 14 9 5 9 -8 0
-24 -4 -35 -9z"/>
<path d="M4208 3623 c7 -3 16 -2 19 1 4 3 -2 6 -13 5 -11 0 -14 -3 -6 -6z"/>
<path d="M4158 3613 c6 -2 18 -2 25 0 6 3 1 5 -13 5 -14 0 -19 -2 -12 -5z"/>
<path d="M3118 3473 c6 -2 18 -2 25 0 6 3 1 5 -13 5 -14 0 -19 -2 -12 -5z"/>
<path d="M3383 3463 c9 -2 25 -2 35 0 9 3 1 5 -18 5 -19 0 -27 -2 -17 -5z"/>
<path d="M2828 3453 c6 -2 18 -2 25 0 6 3 1 5 -13 5 -14 0 -19 -2 -12 -5z"/>
<path d="M2968 3443 c6 -2 18 -2 25 0 6 3 1 5 -13 5 -14 0 -19 -2 -12 -5z"/>
<path d="M3108 3443 c7 -3 16 -2 19 1 4 3 -2 6 -13 5 -11 0 -14 -3 -6 -6z"/>
<path d="M3248 3433 c6 -2 18 -2 25 0 6 3 1 5 -13 5 -14 0 -19 -2 -12 -5z"/>
<path d="M3388 3423 c6 -2 18 -2 25 0 6 3 1 5 -13 5 -14 0 -19 -2 -12 -5z"/>
<path d="M3530 3420 c0 -5 7 -10 16 -10 8 0 12 5 9 10 -3 6 -10 10 -16 10 -5
0 -9 -4 -9 -10z"/>
<path d="M977 3303 c-109 -58 -197 -107 -195 -109 4 -3 393 198 405 209 18 18
-29 -4 -210 -100z"/>
<path d="M1138 3349 c-32 -16 -58 -31 -58 -34 0 -7 27 5 84 36 68 38 47 36
-26 -2z"/>
<path d="M1007 3243 c-109 -58 -196 -107 -194 -109 3 -3 394 200 405 210 17
18 -34 -7 -211 -101z"/>
<path d="M1023 3213 c-111 -59 -201 -109 -199 -111 2 -2 98 46 213 107 114 61
204 111 198 111 -5 0 -101 -48 -212 -107z"/>
<path d="M923 3237 c-73 -39 -130 -73 -128 -75 4 -4 275 137 275 144 0 9 -19
0 -147 -69z"/>
<path d="M1042 3186 c-105 -57 -195 -106 -200 -111 -7 -9 332 166 383 197 17
10 26 18 20 17 -5 0 -97 -46 -203 -103z"/>
<path d="M3260 3202 l0 -29 128 -7 c70 -4 168 -9 218 -13 89 -5 91 -5 97 17 3
13 4 27 2 30 -3 4 -66 10 -142 14 -76 4 -175 9 -220 12 l-83 5 0 -29z"/>
<path d="M1013 3132 c-89 -47 -160 -88 -158 -90 4 -4 305 155 320 169 17 16 1
9 -162 -79z"/>
<path d="M1772 2949 c-106 -56 -191 -104 -188 -106 3 -3 29 8 58 25 29 16 112
60 183 97 116 61 158 85 145 85 -3 0 -92 -46 -198 -101z"/>
<path d="M1890 2974 c-47 -25 -128 -68 -180 -96 -91 -48 -153 -89 -80 -53 80
40 350 187 350 191 0 6 0 6 -90 -42z"/>
<path d="M1803 2892 c-100 -53 -180 -99 -178 -101 2 -1 75 34 162 80 171 90
224 119 208 118 -5 0 -92 -44 -192 -97z"/>
<path d="M1822 2865 c-96 -51 -179 -98 -185 -105 -7 -8 8 -2 33 12 25 14 111
60 193 102 131 69 164 89 140 85 -5 -1 -86 -43 -181 -94z"/>
<path d="M1833 2833 c-100 -54 -181 -99 -179 -101 3 -3 361 183 375 195 23 18
-44 -14 -196 -94z"/>
<path d="M478 2863 c-39 -61 -40 -63 -29 -63 10 0 64 91 57 97 -3 3 -15 -12
-28 -34z"/>
<path d="M1843 2802 c-100 -53 -180 -99 -178 -100 2 -2 75 33 162 79 172 90
223 119 208 118 -5 0 -92 -44 -192 -97z"/>
<path d="M3675 2890 c-3 -5 3 -10 15 -10 12 0 18 5 15 10 -3 6 -10 10 -15 10
-5 0 -12 -4 -15 -10z"/>
<path d="M515 2834 c-15 -25 -23 -50 -18 -55 4 -4 38 -19 74 -33 50 -19 69
-22 78 -13 8 8 14 8 23 -1 9 -9 16 -8 30 5 24 21 23 28 -7 47 -24 16 -25 16
-45 -16 -24 -39 -27 -30 -4 14 18 35 19 33 -58 73 l-46 25 -27 -46z"/>
<path d="M1873 2780 c-101 -53 -186 -100 -190 -105 -7 -7 365 182 376 191 2 2
2 5 0 7 -2 2 -86 -40 -186 -93z"/>
<path d="M3664 2845 c-3 -8 -4 -21 -2 -30 2 -14 7 -13 26 8 l23 24 -21 6 c-13
3 -23 0 -26 -8z"/>
<path d="M2687 2834 c-4 -4 -7 -17 -7 -30 0 -19 6 -22 63 -28 34 -3 134 -8
222 -12 88 -3 168 -8 178 -10 13 -4 17 1 17 24 0 30 0 30 -72 36 -40 3 -134 8
-208 11 -74 4 -146 8 -160 11 -14 3 -29 2 -33 -2z"/>
<path d="M3907 2768 c-14 -13 -49 -80 -82 -158 -31 -74 -74 -173 -96 -220 -67
-148 -260 -592 -290 -667 -47 -118 -37 -128 236 -248 66 -29 154 -68 195 -88
41 -19 99 -43 128 -52 51 -17 55 -17 93 0 22 10 50 32 62 49 21 29 82 164 217
477 32 74 95 215 139 312 91 195 110 251 101 286 -12 49 -78 85 -492 262 -176
75 -179 76 -211 47z m323 -179 c151 -67 281 -126 288 -131 6 -6 12 -16 12 -24
0 -7 -70 -172 -156 -366 -86 -194 -190 -430 -231 -525 -50 -113 -81 -173 -92
-176 -17 -4 -557 229 -587 253 -8 7 -14 19 -14 26 0 7 79 192 176 411 97 219
198 450 226 513 57 129 64 140 87 140 9 0 140 -55 291 -121z"/>
<path d="M3954 2625 c-4 -9 -4 -18 -2 -20 14 -14 482 -214 489 -209 19 11 8
32 -23 45 -18 7 -114 48 -213 92 -269 119 -244 110 -251 92z"/>
<path d="M3905 2378 c-9 -24 11 -63 33 -65 14 -1 24 8 32 28 15 35 13 37 -28
45 -23 5 -33 2 -37 -8z"/>
<path d="M3980 2314 c-16 -42 -8 -58 16 -34 6 6 15 6 24 0 13 -8 13 -10 -2
-10 -21 0 -26 -10 -19 -37 6 -20 8 -21 40 -7 33 14 34 15 15 30 -10 8 -13 13
-6 9 20 -10 14 12 -14 44 -31 38 -42 39 -54 5z"/>
<path d="M3900 2242 c0 -14 52 -34 62 -24 6 6 -3 14 -23 21 -38 13 -39 13 -39
3z"/>
<path d="M4300 2158 c-22 -10 -23 -12 -6 -15 10 -3 26 2 34 11 19 18 8 20 -28
4z"/>
<path d="M3810 1965 c0 -10 62 -36 78 -32 12 2 4 9 -22 20 -39 17 -56 21 -56
12z"/>
<path d="M3768 1918 c4 -18 2 -20 -14 -14 -42 18 -57 15 -19 -3 36 -16 42 -17
57 -4 10 9 24 13 33 10 32 -13 13 3 -21 18 -45 19 -43 19 -36 -7z"/>
<path d="M4025 1865 c70 -34 95 -41 95 -27 0 9 -131 62 -151 61 -8 0 18 -16
56 -34z"/>
<path d="M3896 1864 c-5 -12 -13 -14 -34 -9 -15 4 -24 4 -21 1 8 -8 302 -136
306 -133 1 2 4 13 5 25 3 20 -13 29 -121 77 -68 30 -125 55 -127 55 -1 0 -5
-7 -8 -16z m79 -26 c25 -12 45 -28 45 -36 0 -8 -6 -12 -12 -9 -87 34 -96 40
-91 53 7 18 4 18 58 -8z m131 -58 c36 -16 45 -23 36 -32 -9 -9 -23 -7 -57 10
-25 12 -45 26 -45 32 0 14 12 13 66 -10z"/>
<path d="M416 2764 c-11 -28 -6 -38 9 -18 8 10 15 22 15 27 0 13 -18 7 -24 -9z"/>
<path d="M458 2734 c-8 -16 -8 -28 -2 -32 79 -54 104 -75 104 -88 0 -14 -2
-14 -16 0 -8 9 -36 30 -61 47 -50 35 -47 36 -83 -32 l-19 -37 61 -32 c40 -21
63 -29 66 -22 2 7 12 22 23 34 l20 23 -16 -32 c-18 -39 -19 -43 -1 -43 13 0
27 27 42 80 3 14 12 32 20 40 7 9 17 26 22 40 9 23 5 26 -57 52 -81 34 -88 35
-103 2z"/>
<path d="M381 2684 c-12 -20 -20 -39 -17 -41 2 -3 14 13 26 36 25 51 20 54 -9
5z"/>
<path d="M1758 2683 c-37 -20 -66 -39 -63 -41 4 -4 135 67 135 74 0 6 -1 6
-72 -33z"/>
<path d="M2380 2692 c6 -12 8 -27 5 -32 -3 -5 -49 -31 -103 -58 -127 -65 -162
-85 -162 -94 0 -5 8 -8 18 -8 42 0 92 24 155 75 38 30 77 57 88 60 23 8 25 34
3 61 -14 18 -15 18 -4 -4z"/>
<path d="M1615 2500 c-3 -5 -2 -10 4 -10 5 0 13 5 16 10 3 6 2 10 -4 10 -5 0
-13 -4 -16 -10z"/>
<path d="M1565 2470 c-3 -6 1 -7 9 -4 18 7 21 14 7 14 -6 0 -13 -4 -16 -10z"/>
<path d="M2966 2473 c5 -5 12 -12 16 -18 4 -6 8 -2 8 8 0 9 -7 17 -17 17 -9 0
-12 -3 -7 -7z"/>
<path d="M3126 2435 c8 -50 14 -58 14 -19 0 16 -5 36 -11 44 -7 11 -8 4 -3
-25z"/>
<path d="M2596 2427 c3 -10 9 -15 12 -12 3 3 0 11 -7 18 -10 9 -11 8 -5 -6z"/>
<path d="M1465 2420 c-3 -5 -2 -10 4 -10 5 0 13 5 16 10 3 6 2 10 -4 10 -5 0
-13 -4 -16 -10z"/>
<path d="M1415 2390 c-3 -6 1 -7 9 -4 18 7 21 14 7 14 -6 0 -13 -4 -16 -10z"/>
<path d="M3141 2369 c-1 -15 28 -179 94 -534 13 -71 27 -148 31 -170 4 -22 10
-47 15 -55 31 -55 -23 302 -80 535 -17 66 -37 147 -45 180 -8 33 -14 53 -15
44z"/>
<path d="M1315 2340 c-3 -5 -2 -10 4 -10 5 0 13 5 16 10 3 6 2 10 -4 10 -5 0
-13 -4 -16 -10z"/>
<path d="M1750 2320 l-35 -20 40 6 c63 9 72 13 55 24 -19 12 -19 13 -60 -10z"/>
<path d="M2288 2195 c-21 -19 -34 -35 -29 -35 5 0 14 6 20 14 6 7 21 12 34 11
13 -1 15 -1 4 2 -18 4 -18 6 -1 24 27 30 13 22 -28 -16z"/>
<path d="M2340 2200 c17 -11 57 -14 47 -3 -4 3 -19 8 -34 9 -21 2 -24 1 -13
-6z"/>
<path d="M2407 2167 c-9 -23 8 -30 24 -10 8 9 9 14 2 10 -6 -4 -13 -2 -15 5
-3 8 -7 6 -11 -5z"/>
<path d="M2990 2150 c8 -5 20 -10 25 -10 6 0 3 5 -5 10 -8 5 -19 10 -25 10 -5
0 -3 -5 5 -10z"/>
<path d="M2283 2139 c11 -7 23 -7 35 0 14 9 11 10 -18 10 -29 0 -32 -1 -17
-10z"/>
<path d="M2338 2123 c7 -3 16 -2 19 1 4 3 -2 6 -13 5 -11 0 -14 -3 -6 -6z"/>
<path d="M2830 2126 c0 -2 7 -7 16 -10 8 -3 12 -2 9 4 -6 10 -25 14 -25 6z"/>
<path d="M2785 2110 c27 -12 43 -12 25 0 -8 5 -22 9 -30 9 -10 0 -8 -3 5 -9z"/>
<path d="M1970 2103 c0 -7 10 -52 25 -119 2 -11 11 -21 19 -21 8 0 13 5 11 11
-2 6 -9 39 -15 74 -8 40 -18 62 -26 62 -8 0 -14 -3 -14 -7z"/>
<path d="M2704 2099 c-4 -6 -19 -9 -38 -5 -22 4 -27 3 -16 -4 21 -14 42 -12
64 5 11 8 15 15 9 15 -7 0 -15 -5 -19 -11z"/>
<path d="M2554 2073 c3 -4 17 -8 29 -10 17 -2 19 -1 7 7 -17 11 -47 14 -36 3z"/>
<path d="M2500 2060 c8 -5 20 -10 25 -10 6 0 3 5 -5 10 -8 5 -19 10 -25 10 -5
0 -3 -5 5 -10z"/>
<path d="M1903 2005 c6 -32 15 -54 21 -52 13 4 21 47 8 47 -5 0 -7 14 -4 30 3
25 1 30 -15 30 -18 0 -19 -4 -10 -55z m14 23 c-3 -8 -6 -5 -6 6 -1 11 2 17 5
13 3 -3 4 -12 1 -19z"/>
<path d="M2073 2033 c-4 -9 1 -29 10 -45 9 -16 12 -26 7 -23 -6 3 -10 1 -10
-4 0 -6 3 -11 8 -11 4 0 7 -19 8 -43 1 -61 12 -97 29 -97 15 0 15 7 -1 70 -2
8 -6 38 -10 65 -7 59 -11 68 -27 59 -8 -5 -8 -3 1 7 6 7 12 19 12 26 0 19 -19
16 -27 -4z"/>
<path d="M2385 2040 c3 -5 14 -10 23 -10 15 0 15 2 2 10 -20 13 -33 13 -25 0z"/>
<path d="M2340 2030 c8 -5 20 -10 25 -10 6 0 3 5 -5 10 -8 5 -19 10 -25 10 -5
0 -3 -5 5 -10z"/>
<path d="M1495 2001 c-4 -7 1 -56 11 -109 l18 -96 9 44 c7 36 6 46 -7 56 -9 6
-16 17 -16 25 0 11 2 11 11 -1 8 -11 9 -5 4 25 -9 51 -20 72 -30 56z"/>
<path d="M687 1963 l-18 -38 20 25 c18 22 28 50 18 50 -2 0 -11 -17 -20 -37z"/>
<path d="M1933 1943 c-18 -7 -16 -30 2 -30 8 0 15 9 15 19 0 10 -1 18 -2 17
-2 0 -9 -3 -15 -6z"/>
<path d="M2004 1923 c3 -14 8 -45 12 -68 7 -48 18 -70 31 -62 10 7 5 67 -6 65
-18 -2 -24 3 -12 11 18 12 6 81 -15 81 -10 0 -13 -8 -10 -27z m26 -13 c0 -5
-2 -10 -4 -10 -3 0 -8 5 -11 10 -3 6 -1 10 4 10 6 0 11 -4 11 -10z m7 -92 c-3
-8 -6 -5 -6 6 -1 11 2 17 5 13 3 -3 4 -12 1 -19z"/>
<path d="M1851 1921 c-7 -5 -12 -14 -10 -20 2 -6 10 -2 17 9 14 22 13 23 -7
11z"/>
<path d="M1338 1915 c-12 -12 5 -64 23 -68 16 -4 18 -1 13 21 -11 52 -20 63
-36 47z m19 -37 c-3 -7 -5 -2 -5 12 0 14 2 19 5 13 2 -7 2 -19 0 -25z"/>
<path d="M1854 1882 c-13 -22 6 -114 25 -120 11 -4 13 6 7 47 -4 28 -10 60
-14 71 -7 18 -8 19 -18 2z"/>
<path d="M1931 1882 c-1 -13 3 -20 9 -17 6 3 10 2 10 -4 0 -5 -4 -11 -9 -13
-15 -5 0 -68 16 -68 13 0 14 8 8 43 -4 23 -7 51 -7 62 1 14 -1 16 -7 6 -7 -11
-9 -11 -14 0 -3 8 -6 4 -6 -9z m27 -73 c-3 -8 -7 -3 -11 10 -4 17 -3 21 5 13
5 -5 8 -16 6 -23z"/>
<path d="M3102 1870 c14 -22 24 -19 15 5 -4 8 -11 15 -17 15 -6 0 -6 -7 2 -20z"/>
<path d="M1430 1844 c0 -9 5 -14 12 -12 18 6 21 28 4 28 -9 0 -16 -7 -16 -16z"/>
<path d="M1781 1841 c-12 -8 -12 -12 2 -26 16 -15 17 -15 17 9 0 29 0 29 -19
17z"/>
<path d="M1621 1824 c0 -11 3 -14 6 -6 3 7 2 16 -1 19 -3 4 -6 -2 -5 -13z"/>
<path d="M545 1702 c-86 -157 -84 -149 -49 -125 31 22 36 30 77 123 72 164 61
164 -28 2z"/>
<path d="M1355 1820 c-3 -5 -1 -10 5 -10 6 0 9 -4 6 -9 -8 -13 5 -101 14 -96
5 3 6 -4 3 -15 -4 -15 -2 -19 10 -14 12 4 13 12 7 34 -4 16 -5 32 -2 36 4 4 2
4 -4 1 -7 -4 -14 0 -17 7 -3 8 -1 16 4 18 6 2 8 15 4 31 -7 28 -19 35 -30 17z"/>
<path d="M1452 1817 c-9 -10 -11 -28 -7 -54 11 -62 16 -73 31 -73 12 0 14 7 8
33 -4 17 -10 50 -13 71 -5 34 -8 37 -19 23z"/>
<path d="M3113 1823 c-16 -6 -16 -18 -2 -81 8 -40 14 -49 28 -45 16 4 17 11 8
61 -10 62 -15 72 -34 65z"/>
<path d="M1536 1792 c-8 -25 3 -92 15 -92 12 0 20 18 11 24 -5 3 -7 16 -5 30
3 13 1 32 -5 42 -9 16 -10 16 -16 -4z m11 -24 c-3 -8 -6 -5 -6 6 -1 11 2 17 5
13 3 -3 4 -12 1 -19z"/>
<path d="M1610 1781 c0 -33 13 -61 27 -61 12 0 13 7 8 28 -4 15 -8 32 -8 38
-1 17 -27 12 -27 -5z"/>
<path d="M2694 1777 c1 -11 8 -21 17 -22 11 -2 15 3 12 19 -6 28 -31 30 -29 3z"/>
<path d="M1694 1774 c3 -9 6 -22 6 -30 0 -8 7 -14 15 -14 8 0 15 5 15 11 0 5
-4 7 -10 4 -5 -3 -10 3 -10 15 0 13 4 19 12 14 7 -4 8 -3 4 4 -11 19 -39 15
-32 -4z"/>
<path d="M1787 1783 c-13 -12 -7 -33 8 -33 8 0 15 9 15 20 0 20 -11 26 -23 13z"/>
<path d="M2786 1772 c-6 -11 2 -130 10 -143 9 -16 34 -10 34 9 0 49 -13 93
-26 88 -8 -3 -14 -1 -14 4 0 6 6 10 13 10 9 0 8 3 -2 9 -7 5 -10 14 -7 20 4 6
5 11 2 11 -3 0 -7 -4 -10 -8z"/>
<path d="M1285 1718 c9 -51 12 -58 29 -58 10 0 11 11 3 50 -6 33 -15 50 -24
50 -12 0 -13 -9 -8 -42z m22 -35 c-3 -10 -5 -4 -5 12 0 17 2 24 5 18 2 -7 2
-21 0 -30z"/>
<path d="M3042 1744 c-20 -22 -5 -84 20 -84 16 0 18 5 12 38 -9 53 -16 63 -32
46z"/>
<path d="M2530 1729 c0 -5 5 -7 10 -4 6 3 10 8 10 11 0 2 -4 4 -10 4 -5 0 -10
-5 -10 -11z"/>
<path d="M2699 1733 c-6 -39 21 -153 36 -153 26 0 26 12 -1 138 -4 20 -32 32
-35 15z"/>
<path d="M2536 1702 c-2 -4 0 -27 4 -52 5 -25 9 -48 10 -52 0 -3 9 -4 20 -1
13 3 19 12 16 22 -2 9 -7 33 -11 54 -5 34 -26 50 -39 29z"/>
<path d="M2876 1698 c3 -5 10 -6 15 -3 13 9 11 12 -6 12 -8 0 -12 -4 -9 -9z"/>
<path d="M2960 1696 c0 -2 7 -6 15 -10 8 -3 15 -1 15 4 0 6 -7 10 -15 10 -8 0
-15 -2 -15 -4z"/>
<path d="M2876 1671 c-4 -5 -4 -15 -2 -23 2 -7 7 -25 10 -40 7 -33 36 -28 36
6 0 53 -26 86 -44 57z"/>
<path d="M2644 1663 c4 -7 2 -13 -5 -13 -8 0 -10 -14 -5 -50 9 -64 15 -80 32
-80 24 0 10 119 -17 144 -9 8 -10 8 -5 -1z"/>
<path d="M1853 1647 c-62 -18 -63 -28 -1 -12 29 7 62 16 73 18 16 4 15 5 -5 5
-14 0 -44 -5 -67 -11z"/>
<path d="M2964 1645 c-7 -18 3 -35 22 -35 8 0 14 10 14 25 0 27 -27 35 -36 10z"/>
<path d="M2464 1608 c8 -49 13 -58 32 -58 27 0 11 86 -18 93 -19 5 -20 2 -14
-35z"/>
<path d="M1740 1620 c-8 -5 -10 -10 -5 -10 6 0 17 5 25 10 8 5 11 10 5 10 -5
0 -17 -5 -25 -10z"/>
<path d="M1615 1604 c-27 -6 -83 -17 -123 -25 -40 -7 -75 -15 -77 -19 -4 -6
76 8 255 43 8 1 11 5 5 8 -5 3 -32 0 -60 -7z"/>
<path d="M2397 1593 c-3 -5 -4 -27 -2 -50 2 -24 0 -43 -3 -43 -4 1 -23 14 -42
30 -19 17 -38 30 -44 30 -5 0 13 -17 40 -37 27 -20 72 -55 99 -78 81 -66 94
-73 32 -15 -37 33 -54 56 -47 60 15 9 2 60 -16 60 -17 0 -18 17 -1 23 9 4 9 6
-1 6 -7 1 -10 6 -7 11 3 6 4 10 1 10 -3 0 -7 -3 -9 -7z"/>
<path d="M2022 1579 c2 -6 8 -10 13 -10 5 0 11 4 13 10 2 6 -4 11 -13 11 -9 0
-15 -5 -13 -11z"/>
<path d="M2119 1561 c-19 -15 -21 -21 -11 -34 7 -8 10 -22 6 -30 -5 -14 -2
-14 19 -4 14 6 23 16 20 21 -4 5 -1 6 6 2 6 -4 9 -11 6 -16 -3 -5 15 -25 40
-46 25 -20 43 -39 41 -42 -3 -2 -24 3 -47 12 l-42 17 -43 -42 c-36 -35 -43
-39 -47 -23 -3 11 -5 0 -6 -23 0 -23 4 -45 11 -49 7 -4 8 -3 4 4 -4 7 -1 12 7
12 8 0 23 12 32 28 10 15 27 37 37 49 l20 22 77 -37 c42 -20 82 -43 89 -49 7
-7 19 -13 25 -13 7 0 35 -16 62 -36 28 -20 66 -43 85 -51 l35 -15 -40 -35
c-79 -69 -160 -82 -247 -38 -27 13 -46 20 -43 15 4 -6 21 -18 38 -27 88 -45
168 -35 247 33 62 53 91 56 149 14 l42 -31 25 31 c14 16 35 30 46 30 17 0 12
7 -21 30 -23 17 -61 40 -84 51 -23 11 -50 25 -59 30 -26 13 -30 11 -23 -10 11
-35 -11 -30 -91 21 -43 28 -85 51 -91 51 -7 0 -11 2 -8 5 4 5 -70 62 -81 62
-3 0 -2 -5 2 -12 4 -7 3 -8 -5 -4 -6 4 -9 11 -6 16 3 5 -19 26 -50 46 -30 20
-55 41 -55 45 0 8 18 14 70 23 14 2 -1 2 -32 0 -31 -2 -60 1 -63 6 -9 14 -20
12 -46 -9z m31 -16 c0 -8 -4 -15 -9 -15 -13 0 -22 16 -14 24 11 11 23 6 23 -9z
m117 -82 c-4 -3 0 -15 10 -25 9 -10 12 -18 7 -18 -12 0 -34 36 -27 44 4 3 9 6
11 6 3 0 2 -3 -1 -7z"/>
<path d="M1358 1553 c7 -3 16 -2 19 1 4 3 -2 6 -13 5 -11 0 -14 -3 -6 -6z"/>
<path d="M1300 1539 c0 -5 5 -7 10 -4 6 3 10 8 10 11 0 2 -4 4 -10 4 -5 0 -10
-5 -10 -11z"/>
<path d="M376 1511 c-9 -15 23 -36 36 -23 5 5 7 15 4 21 -9 13 -33 14 -40 2z"/>
<path d="M426 1485 c-4 -12 -1 -16 14 -13 24 3 28 22 7 26 -8 2 -17 -4 -21
-13z"/>
<path d="M1840 1490 c0 -15 31 -165 35 -169 13 -13 -13 149 -26 164 -5 5 -9 7
-9 5z"/>
<path d="M1770 1464 c1 -30 26 -154 33 -161 10 -9 9 7 -8 93 -14 76 -25 106
-25 68z"/>
<path d="M1924 1450 c3 -19 8 -54 12 -77 4 -24 11 -43 16 -43 6 0 8 6 5 14 -3
7 -9 35 -12 62 -4 27 -12 56 -17 64 -6 10 -7 4 -4 -20z"/>
<path d="M2090 1450 c-6 -11 -8 -20 -6 -20 3 0 10 9 16 20 6 11 8 20 6 20 -3
0 -10 -9 -16 -20z"/>
<path d="M1400 1415 c0 -23 34 -185 37 -181 8 7 -19 176 -29 182 -4 3 -8 2 -8
-1z"/>
<path d="M1703 1398 c4 -13 9 -42 13 -65 4 -24 11 -43 16 -43 5 0 7 8 4 18 -3
9 -8 38 -12 65 -3 26 -11 47 -16 47 -6 0 -8 -10 -5 -22z"/>
<path d="M1480 1391 c0 -33 24 -141 32 -141 5 0 7 8 4 18 -2 9 -8 37 -11 62
-7 46 -24 88 -25 61z"/>
<path d="M1566 1341 c5 -55 24 -109 23 -66 -1 11 -7 43 -15 70 l-13 50 5 -54z"/>
<path d="M1634 1363 c3 -10 8 -35 12 -56 3 -21 9 -36 11 -33 9 8 -9 106 -19
106 -5 0 -7 -8 -4 -17z"/>
<path d="M1345 1289 c14 -68 31 -96 21 -34 -13 77 -18 95 -26 95 -4 0 -2 -27
5 -61z"/>
<path d="M3206 1275 c10 -8 23 -15 28 -15 6 0 1 7 -10 15 -10 8 -23 15 -28 15
-6 0 -1 -7 10 -15z"/>
<path d="M607 1215 c-53 -20 -122 -71 -151 -114 -59 -84 -73 -205 -36 -304 35
-93 84 -120 158 -87 54 24 103 25 144 4 41 -21 72 -11 96 30 11 19 34 42 50
50 43 22 46 50 12 127 -34 77 -37 106 -13 167 15 40 15 46 -1 78 -10 23 -29
40 -51 50 -43 18 -157 17 -208 -1z"/>
<path d="M2170 1196 c0 -2 8 -10 18 -17 15 -13 16 -12 3 4 -13 16 -21 21 -21
13z"/>
<path d="M1431 1135 c-7 -25 -11 -48 -8 -51 3 -3 92 -32 199 -64 106 -32 291
-88 411 -124 120 -36 225 -66 234 -66 9 0 13 -6 9 -15 -3 -9 -13 -41 -22 -73
-38 -136 -66 -218 -80 -233 -13 -15 -13 -17 1 -23 20 -7 51 24 63 66 5 18 26
87 45 153 47 157 59 213 52 236 -9 28 -25 23 -25 -8 0 -16 -5 -35 -10 -43 -8
-11 -9 -9 -5 11 7 29 53 13 -440 159 -148 44 -299 89 -335 100 -36 11 -67 20
-70 20 -3 0 -12 -20 -19 -45z m856 -287 c-3 -8 -6 -5 -6 6 -1 11 2 17 5 13 3
-3 4 -12 1 -19z"/>
<path d="M4051 1149 c-1 -3 12 -50 29 -105 16 -54 30 -108 30 -119 0 -14 3
-16 12 -7 9 9 9 17 1 34 -6 13 -16 44 -22 69 -10 42 -49 142 -50 128z"/>
<path d="M900 1110 c0 -5 5 -10 11 -10 5 0 7 5 4 10 -3 6 -8 10 -11 10 -2 0
-4 -4 -4 -10z"/>
<path d="M874 1079 c-7 -13 4 -29 22 -29 8 0 23 -6 34 -12 17 -11 22 -10 30 2
11 17 -7 43 -26 36 -6 -2 -15 -2 -18 2 -11 10 -36 11 -42 1z"/>
<path d="M1186 1065 c22 -76 30 -258 12 -282 -5 -7 -24 -43 -42 -80 -70 -144
-189 -237 -351 -273 -36 -9 -34 -9 21 -6 43 3 79 13 125 36 139 70 218 152
265 276 23 62 26 78 20 156 -4 63 -13 101 -31 140 -14 29 -23 44 -19 33z"/>
<path d="M2800 1063 c0 -5 16 -14 35 -20 44 -14 205 -122 205 -139 0 -6 -9
-33 -21 -59 -22 -50 -16 -74 17 -61 9 4 14 9 11 12 -3 3 1 27 9 52 20 66 19
68 -28 103 -37 27 -39 31 -16 25 50 -11 118 -45 118 -58 0 -7 -16 -38 -37 -68
-25 -38 -29 -49 -14 -35 13 11 32 37 42 58 11 21 32 43 47 49 21 9 23 12 10
15 -20 5 -23 14 -9 29 6 5 2 19 -11 34 -13 16 -19 18 -15 8 8 -24 7 -23 -83
17 -63 28 -95 36 -169 42 -57 4 -91 2 -91 -4z"/>
<path d="M876 1021 c-15 -17 -15 -20 1 -40 21 -26 49 -20 59 12 4 14 1 25 -12
34 -23 17 -28 17 -48 -6z"/>
<path d="M942 958 c6 -18 28 -21 28 -4 0 9 -7 16 -16 16 -9 0 -14 -5 -12 -12z"/>
<path d="M1820 890 c0 -15 12 -23 48 -33 52 -16 62 -14 62 12 0 14 -12 22 -44
30 -60 15 -66 14 -66 -9z"/>
<path d="M1461 876 c-18 -21 -7 -81 14 -81 26 0 59 48 50 74 -7 24 -46 29 -64
7z"/>
<path d="M1946 854 c-8 -20 -7 -21 19 -26 14 -2 21 3 23 20 3 16 -2 22 -16 22
-11 0 -23 -7 -26 -16z"/>
<path d="M2006 843 c-9 -21 2 -31 42 -39 28 -6 32 -4 32 14 0 14 -10 24 -31
31 -39 14 -36 14 -43 -6z"/>
<path d="M2096 814 c-9 -24 12 -44 24 -24 5 8 8 19 7 24 -6 17 -24 17 -31 0z"/>
<path d="M3708 820 c-54 -4 -100 -8 -102 -11 -2 -2 -7 -15 -11 -29 -5 -23 -2
-26 47 -39 83 -21 143 -30 278 -41 69 -5 155 -13 193 -16 l67 -7 0 42 c0 22 0
44 0 49 0 4 -78 14 -175 23 -96 9 -181 21 -187 26 -7 4 -57 6 -110 3z"/>
<path d="M913 785 c1 -16 8 -30 15 -33 16 -5 15 18 -3 42 -13 17 -14 17 -12
-9z"/>
<path d="M1390 791 c-14 -28 -13 -39 8 -45 31 -10 36 -7 39 29 1 29 -2 35 -17
35 -11 0 -24 -9 -30 -19z"/>
<path d="M1488 754 l-17 -34 25 -6 c41 -10 62 40 26 62 -14 9 -20 6 -34 -22z"/>
<path d="M1460 780 c-1 -3 -3 -16 -6 -30 -3 -21 -2 -22 7 -7 6 10 8 23 5 30
-2 7 -5 10 -6 7z"/>
<path d="M835 760 c-4 -7 -3 -16 3 -22 14 -14 45 -2 40 15 -6 16 -34 21 -43 7z"/>
<path d="M4207 728 c-7 -54 4 -68 48 -61 26 4 36 2 40 -10 8 -20 198 -35 219
-17 22 17 90 9 94 -12 2 -9 -5 -18 -15 -21 -13 -3 -10 -5 8 -6 14 0 30 4 37
11 7 7 27 17 44 22 26 9 33 17 33 36 0 16 -6 26 -17 28 -13 2 -18 -3 -18 -18
0 -21 -25 -38 -37 -26 -4 4 -7 22 -7 42 0 27 -5 36 -20 39 -34 8 -320 35 -363
35 -40 0 -40 -1 -46 -42z"/>
<path d="M607 704 c-8 -8 1 -24 14 -24 5 0 9 7 9 15 0 15 -12 20 -23 9z"/>
<path d="M830 700 c0 -5 5 -10 10 -10 6 0 10 5 10 10 0 6 -4 10 -10 10 -5 0
-10 -4 -10 -10z"/>
<path d="M667 682 c-10 -10 -17 -21 -17 -25 0 -9 30 -37 40 -37 5 0 16 7 24
16 9 8 16 19 16 24 0 11 -29 40 -39 40 -4 0 -15 -8 -24 -18z"/>
<path d="M555 680 c-8 -13 3 -30 20 -30 14 0 27 24 18 34 -10 9 -31 7 -38 -4z"/>
<path d="M3130 677 c-14 -7 -101 -46 -194 -87 -117 -51 -170 -80 -175 -94 -6
-14 3 -44 26 -94 37 -79 36 -85 -14 -98 -13 -3 -23 -10 -23 -14 0 -17 27 -17
80 0 30 10 58 16 63 13 24 -14 396 151 407 182 19 51 -75 205 -124 205 -12 0
-32 -6 -46 -13z"/>
<path d="M617 654 c-8 -8 1 -24 14 -24 5 0 9 7 9 15 0 15 -12 20 -23 9z"/>
<path d="M2491 586 c-46 -35 -70 -69 -71 -99 0 -30 49 -85 87 -98 l35 -11 59
63 c32 35 58 70 59 78 0 20 -84 101 -106 101 -11 0 -39 -15 -63 -34z"/>
<path d="M4328 613 c7 -3 16 -2 19 1 4 3 -2 6 -13 5 -11 0 -14 -3 -6 -6z"/>
<path d="M2710 426 c0 -17 14 -29 23 -20 8 8 -3 34 -14 34 -5 0 -9 -6 -9 -14z"/>
<path d="M2750 346 c0 -8 5 -18 10 -21 6 -3 10 1 10 9 0 8 -4 18 -10 21 -5 3
-10 -1 -10 -9z"/>
</g>
</svg>
